<?xml version="1.0"?>
<svg width="32px" height="32px" viewBox="0 0 223.53 223.55" xmlns="http://www.w3.org/2000/svg" xmlns:svg="http://www.w3.org/2000/svg" xmlns:se="http://svg-edit.googlecode.com" data-name="레이어 1">
 <!-- Created with SVG-edit - https://github.com/SVG-Edit/svgedit-->
 <g class="layer">
  <title>Layer 1</title>
  <path d="m43.58554,48.806118c-0.271257,0.083581 -0.000638,0.78487 0,1.795663c0.000539,0.854085 -0.022131,1.566085 0.00016,2.556049c0.017179,0.762945 0.200602,1.724725 0.477405,2.484057c0.30665,0.841206 0.475415,1.737051 0.477565,2.618568c0.001658,0.680387 -0.061554,1.706111 0.211401,2.613995c0.211842,0.704613 0.627733,1.638132 0.709344,2.438022c0.06433,0.630526 0.034384,1.834842 0.034384,2.634078c0,0.536087 0,1.776074 0,2.598814c0,0.944194 0,1.622466 0,2.560947c0,0.716958 0,1.859651 0,2.655457c0,0.825031 0,1.69593 0,2.664929c0,0.783566 0,1.763019 0,2.53613c0,0.710431 0,1.675522 0,2.639305c0,0.845596 0,1.731507 0,2.434263c0,1.023534 0,1.813952 0,2.9684c0,0.586363 0,1.448772 0,2.267108c0,0.980761 0,1.871409 0,2.793398c0,0.774262 0,1.610226 0,2.77512c0,0.588978 0,1.489588 0,2.112843c0,1.335973 0,2.04804 0,2.764016c0,0.696397 0,1.937363 0,2.702807c0,0.694918 0,1.906665 0,2.446018c0,0.850655 0,2.02143 0,2.89265c0,0.562861 0,1.610226 0,2.553108c0,0.755162 -0.003392,1.669006 0.001275,2.406846c0.005163,0.816251 0.010508,1.67322 0.080231,2.526991c0.098149,1.201854 0.254894,1.916723 0.396059,2.591465c0.205663,0.983025 0.370186,1.99961 0.427262,2.720921c0.059131,0.747301 0.070714,1.518865 0.209492,2.68648c0.093307,0.785038 0.247286,1.559053 0.424078,2.315426c0.172426,0.737699 0.564846,2.104197 0.743725,2.732025c0.246591,0.865488 0.470289,1.885196 0.559071,2.557024c0.107969,0.817028 0.387475,1.793814 0.573076,2.421209c0.33934,1.147087 0.344889,1.686925 0.430447,2.521768c0.119562,1.166673 0.248467,1.753529 0.453368,2.654474c0.141697,0.623023 0.374927,1.958159 0.422963,2.671303c0.048171,0.715161 0.044294,1.412418 0.054762,2.653174c0.006373,0.755199 0.027494,1.623116 0.33668,2.584291c0.240364,0.747219 0.498632,1.619948 0.619564,2.550978c0.103021,0.793116 0.628939,1.416438 1.049366,2.294532c0.323688,0.676049 0.486561,1.470047 1.050645,2.435571c0.333565,0.570939 1.089419,1.217038 1.528206,1.817868c0.526527,0.720975 0.848819,1.4936 1.338455,2.462996c0.298616,0.591205 0.905643,1.581254 1.386214,2.1504c0.482542,0.571477 1.162396,1.179705 1.744544,1.865364c0.530596,0.624936 0.822942,1.350664 1.343071,1.974584c0.655959,0.786869 1.417519,1.12375 2.130573,1.64939c0.627824,0.46281 1.314965,0.965046 1.966297,1.371244c0.912471,0.569056 1.404129,1.036126 2.261904,1.685961c0.674228,0.510785 1.175928,0.853793 2.187729,1.480927c0.666438,0.413072 1.287216,0.699095 2.049071,1.240652c0.641662,0.456115 1.443858,1.066823 2.097464,1.46918c0.775635,0.477472 1.283426,0.937128 2.220994,1.534476c0.516959,0.329379 1.118557,0.668622 2.100488,1.100405c0.911342,0.400742 1.709945,0.591878 2.402632,0.709616c0.908405,0.1544 1.66674,0.31412 2.44513,0.583762c1.020706,0.35359 1.670916,0.704909 2.448635,1.010958c0.854845,0.336403 1.754681,0.492626 2.385595,0.77687c0.74159,0.334116 1.47399,0.801216 2.292313,1.104814c0.870184,0.322833 1.64837,0.373931 2.493523,0.451855c0.611377,0.056374 1.604013,0.169151 2.643804,0.402237c0.694945,0.15579 1.363555,0.325104 2.496066,0.746995c0.684911,0.255146 1.522894,0.692788 2.28977,0.774419c0.818344,0.087116 1.548581,0.010447 2.67054,0.010447c0.767925,0 1.55307,-0.007772 2.537778,0.000164c0.644774,0.005201 1.671251,0.173559 2.313008,0.489562c0.778914,0.38354 1.668249,0.484496 2.54701,0.489727c0.75072,0.004469 1.535865,-0.005873 2.547018,0c0.899136,0.005231 1.55374,0.017889 2.471873,0.216781c0.775154,0.167925 1.54246,0.472719 2.537938,0.643663c0.853723,0.146613 1.452552,0.088341 2.408359,0.123418c0.765273,0.028082 1.712073,0.29484 2.483336,0.558445c0.947172,0.32373 1.738926,0.405316 2.373819,0.415299c0.956281,0.015035 1.773044,0.0013 2.675634,0.0013c0.988082,0 1.682466,0 2.380668,0c1.004317,0 1.889244,0 2.635672,0c0.901643,0 1.858055,0 2.637435,0c0.77938,0 1.730692,0 2.499899,0c0.998269,0 1.86798,0.021641 2.592853,-0.035256c1.119278,-0.087863 1.688689,-0.237555 2.528392,-0.454471c0.799274,-0.206469 1.75522,-0.400862 2.407718,-0.489727c1.115839,-0.151978 1.86833,-0.338989 2.387824,-0.510127c0.784656,-0.258478 1.738955,-0.652645 2.56866,-1.057004c0.779832,-0.380043 1.509296,-0.820451 2.220994,-1.091752c0.813498,-0.310114 1.74528,-0.415553 2.613242,-0.706523c0.718067,-0.240723 1.543662,-0.635981 2.128507,-1.042134c0.817769,-0.567905 1.483383,-0.930298 2.248525,-1.46918c0.666081,-0.469102 1.268138,-1.148335 1.746301,-1.623116c0.552607,-0.548701 1.435478,-1.317889 1.931596,-1.708334c0.776276,-0.610933 1.337744,-0.995714 2.052882,-1.729063c0.715138,-0.733349 1.091237,-1.308444 1.49207,-1.84202c0.762358,-1.014799 1.141066,-1.473858 1.723536,-2.097987c0.752141,-0.805939 1.33719,-1.38169 1.719236,-1.773466c0.573084,-0.587678 1.347611,-1.362351 1.910259,-1.979307c0.584102,-0.64048 1.154941,-1.365026 1.523914,-1.892146c0.556659,-0.795238 0.892228,-1.326632 1.452268,-2.314768c0.376479,-0.664258 0.717659,-1.349887 1.307896,-2.319357c0.326242,-0.535863 0.861651,-1.348243 1.4467,-2.105161c0.553656,-0.716312 1.140454,-1.379598 1.4467,-1.896226c0.491163,-0.828566 0.70957,-1.530455 0.980926,-2.307266c0.31209,-0.893428 0.472581,-1.397099 0.915328,-2.489449c0.507413,-1.251891 0.818599,-1.904491 1.123228,-2.580525c0.308549,-0.684747 0.620814,-1.367746 0.922659,-2.045096c0.294091,-0.659953 0.834995,-1.897915 1.243581,-3.004971c0.183197,-0.496377 0.477754,-1.406993 0.709177,-2.220912c0.30798,-1.083203 0.479503,-1.754111 0.681486,-2.368153c0.27188,-0.826503 0.782995,-1.838418 1.146167,-2.456464c0.504119,-0.857903 0.786026,-1.567766 0.996039,-2.351833c0.266488,-0.994907 0.264637,-1.685819 0.421367,-2.4945c0.19302,-0.995968 0.615392,-1.746549 0.793401,-2.746388c0.110166,-0.618824 0.081498,-1.891003 0.081498,-2.513929c0,-0.677783 0,-1.386906 0,-2.80516c0,-0.668636 0,-1.313771 0,-2.271674c0,-0.993166 0,-1.695765 0,-2.788832c0,-0.731975 0,-1.795667 0,-2.461695c0,-0.925583 0,-1.763011 0,-2.74508c0,-0.890648 0,-1.812637 0,-2.600118c0,-0.600083 0,-1.652013 0,-2.477365c0,-0.929827 0,-1.914504 0,-2.407825c0,-0.949413 0,-2.162954 0,-3.001862c0,-0.752868 0,-1.710284 0,-2.446347c0,-0.780136 0,-1.984859 0,-2.64893c0,-0.921989 0,-1.696251 0,-2.532215c0,-1.164894 0,-1.751257 0,-2.613666c0,-0.818336 0.025286,-2.027782 -0.03438,-2.689745c-0.083553,-0.926876 -0.274183,-1.698948 -0.548891,-2.461695c-0.333004,-0.924634 -0.902619,-1.646902 -1.276679,-2.508706c-0.328486,-0.756821 -0.747769,-1.404198 -0.95513,-2.30873c-0.164965,-0.7196 -0.272813,-1.729668 -0.633581,-2.455329c-0.4122,-0.829134 -1.060311,-1.480628 -1.61353,-2.096515c-0.495943,-0.552123 -1.011036,-1.299237 -1.282581,-2.056858c-0.339839,-0.94815 -0.243854,-1.827993 -0.883644,-2.655782c-0.458546,-0.593282 -1.152682,-1.175546 -1.381758,-2.016371c-0.213351,-0.783136 -0.691513,-1.524029 -1.130879,-2.260577c-0.459333,-0.770018 -0.801723,-1.59676 -1.181816,-2.329792c-0.336691,-0.649353 -0.911947,-1.480415 -1.493818,-2.094725c-0.564674,-0.596163 -1.177647,-1.367687 -1.910259,-1.795663c-0.744869,-0.435135 -1.072408,-1.066027 -1.633118,-1.781955c-0.422314,-0.539218 -1.141766,-1.386039 -1.795168,-1.861613c-0.711596,-0.517928 -1.554753,-0.698067 -2.11147,-1.222359c-0.601591,-0.566557 -1.292288,-1.197531 -2.081389,-1.64336c-0.731767,-0.413431 -1.531405,-0.766255 -2.10717,-1.108252c-0.908915,-0.53989 -1.456538,-0.978359 -2.306326,-1.385598c-0.778112,-0.372892 -1.368685,-1.141961 -1.94464,-1.507051c-0.745947,-0.472842 -1.658185,-0.413722 -2.498457,-0.772461c-0.709162,-0.302761 -1.450898,-0.538407 -2.419829,-0.658847c-1.002685,-0.124636 -1.68216,-0.290857 -2.383846,-0.609222c-0.863415,-0.391745 -1.481139,-0.839169 -2.437639,-1.161629c-0.739447,-0.249287 -1.566951,-0.471135 -2.270663,-0.726101c-0.932073,-0.337711 -1.722938,-0.346697 -2.664179,-0.579839c-0.790034,-0.19569 -1.379441,-0.532309 -2.312695,-0.697208c-0.761032,-0.13447 -1.553106,-0.105555 -2.538084,-0.119166c-0.880146,-0.012162 -1.539727,-0.052832 -2.488444,-0.278001c-0.785458,-0.186424 -1.549492,-0.479328 -2.513891,-0.617707c-0.86305,-0.123837 -1.767637,-0.083581 -2.514065,-0.083581c-0.755027,0 -1.823339,0.000568 -2.546857,0c-0.831599,-0.000654 -1.724425,0.002802 -2.660346,-0.278165c-0.584554,-0.175487 -1.522165,-0.584708 -2.29232,-0.666029c-0.760798,-0.080331 -1.723536,-0.03526 -2.537938,-0.03526c-0.921063,0 -1.699015,0 -2.528545,0c-0.855319,0 -1.710638,0 -2.540168,0c-1.021355,0 -1.703314,0.000078 -2.568026,0c-0.925522,-0.000082 -1.715148,0.015409 -2.587446,-0.055992c-0.962519,-0.078788 -1.645623,-0.219154 -2.353123,-0.360603c-0.716296,-0.143209 -1.418295,-0.329491 -2.759683,-0.479276c-0.618336,-0.069047 -1.509894,-0.081377 -2.66036,-0.083581c-0.573076,-0.001098 -1.432695,0 -2.578847,0c-0.573076,0 -1.432695,0 -2.292313,0c-0.859618,0 -1.719229,0 -2.578847,0c-0.859618,0 -1.720184,0.01632 -2.578855,-0.03526c-0.574024,-0.034482 -1.720672,-0.242169 -2.3025,-0.381336c-0.904288,-0.216295 -1.866588,-0.4162 -2.554647,-0.479276c-0.715684,-0.06561 -1.456859,-0.077275 -2.212082,-0.082274c-1.144863,-0.007581 -1.908984,-0.001308 -2.673091,-0.001308c-0.764107,0 -1.910259,0 -2.671816,0c-1.108909,0 -1.803606,0 -2.740584,0c-0.782251,0 -1.646963,0 -2.611967,0c-0.797212,0 -1.686117,0 -2.436852,0c-0.785115,0 -1.796283,0 -2.685187,0c-0.603165,0 -1.562594,0 -2.326693,0c-0.954977,0 -1.875879,0 -2.785159,0c-0.733545,0 -1.653012,-0.000329 -2.240422,0c-1.167482,0.000654 -1.951847,-0.026509 -2.726257,0.083581c-0.962093,0.136772 -1.536142,0.51281 -2.543031,0.77687c-0.767043,0.20116 -1.583129,0.119002 -2.549878,0.119002c-0.74739,0 -1.658703,-0.078444 -2.553062,0.216785c-0.649682,0.214461 -1.497928,0.717687 -2.287376,0.762668c-0.819594,0.0467 -1.272186,0.837126 -2.073267,0.978146c-0.883625,0.15555 -1.556225,0.001308 -2.547014,0.001308c-0.843062,0 -1.689002,-0.190885 -2.526636,0.001308c-0.770836,0.176866 -1.242776,0.967942 -2.126758,0.978146c-0.821358,0.009479 -1.958296,-0.452292 -2.459139,0.163243c-0.510091,0.626898 -0.873624,0.81621 -0.95513,1.517498l0,0.9122" fill="none" id="svg_8" stroke="#000000" stroke-dasharray="null" stroke-linecap="null" stroke-linejoin="null" stroke-width="10"/>
  <path d="m117.042804,44.949997c1.017547,0.553061 0.597693,1.263301 0.088666,1.991256c-0.474012,0.677878 -1.284536,1.108164 -1.671992,1.669144c-0.581675,0.842187 -0.888003,1.389492 -1.206315,2.084088c-0.414732,0.904996 -0.681318,1.683247 -1.180987,2.238354c-0.592805,0.658576 -1.139376,1.311371 -1.491495,1.817671c-0.730322,1.050099 -1.010694,1.604632 -1.376962,2.425976c-0.240582,0.539501 -0.647696,1.632523 -0.87118,2.173599c-0.33817,0.818742 -0.581055,1.372408 -1.073501,2.173596c-0.510453,0.830478 -0.935525,1.360209 -1.350926,1.9019c-0.627176,0.817844 -1.268824,1.632426 -1.649475,2.206199c-0.385346,0.580849 -0.87722,1.521305 -1.138764,2.192767c-0.267463,0.686663 -0.480358,1.400814 -0.799225,2.484093c-0.212806,0.72296 -0.419065,1.440109 -0.633329,2.140993c-0.208047,0.680555 -0.506885,1.649231 -0.855702,2.535867c-0.224395,0.570367 -0.470283,1.13173 -1.132958,2.207409c-0.344508,0.559228 -0.756688,1.106323 -1.089326,1.706277c-0.690426,1.24527 -0.905036,1.945359 -1.132958,2.649373c-0.231063,0.713729 -0.432474,1.439618 -0.644587,2.162731c-0.210116,0.716292 -0.406945,1.421308 -0.844444,2.748395c-0.204004,0.61881 -0.417954,1.206327 -0.738882,2.048762c-0.312513,0.820352 -0.641648,1.630975 -0.82245,2.177676c-0.268059,0.810547 -0.429389,1.629365 -0.523032,2.435635c-0.089705,0.772385 -0.25147,1.713394 -0.475695,2.341449c-0.295142,0.826688 -0.522428,1.730046 -0.606592,2.487112c-0.05874,0.528356 -0.226899,1.612789 -0.448958,2.436091c-0.153003,0.567271 -0.362056,1.14859 -0.516517,2.421146c-0.081233,0.669265 -0.083246,1.350007 -0.088666,2.021441c-0.007763,0.962401 -0.001409,1.864467 -0.001409,2.453753c0,1.214798 0,1.865669 0,2.545527c0,0.701588 0,1.417666 0,2.503108c0,0.720611 0,1.430346 0,2.121977c0,1.300229 0,1.901897 0,2.759105c0,0.551856 -0.01001,1.640103 0.011258,2.183259c0.031947,0.815729 0.211944,1.903797 0.361001,2.441218c0.219063,0.789818 0.521019,1.753263 0.6277,2.397604c0.127547,0.77036 0.377994,1.675211 0.662183,2.406504c0.348913,0.897844 0.293741,1.649742 0.624881,2.384918c0.352384,0.782356 1.21899,1.347789 1.762067,1.81375c0.600085,0.514868 1.430057,1.243784 2.073106,1.769072c0.624059,0.509769 1.469727,1.087529 2.099835,1.426117c0.75647,0.406483 1.63791,0.980995 2.509397,1.481671c0.691948,0.397542 1.359149,0.65045 2.379917,0.996238c0.842527,0.285398 1.722356,0.530208 2.545991,0.815094c1.001304,0.346341 1.702159,0.649151 2.731762,0.996238c0.843075,0.284209 1.435227,0.437936 2.545991,0.815094c0.758427,0.257524 1.695934,0.636478 2.732116,0.795774c0.862958,0.132666 1.508826,0.099734 2.897481,0.260841c0.760328,0.088209 1.539057,0.237085 2.330656,0.369502c0.781886,0.1308 2.256542,0.319932 2.933028,0.352615c0.933271,0.045093 2.032284,0.0326 3.004798,0.0326c0.721995,0 1.776136,0 2.616883,0c1.253466,0 1.962906,0.0127 3.000401,-0.000152c0.760231,-0.009411 1.957663,-0.11875 2.777158,-0.327395c0.880393,-0.22415 1.480527,-0.420067 2.494619,-1.017672c0.755834,-0.445412 1.182308,-0.851135 2.222292,-1.55291c0.551806,-0.372349 1.436999,-0.89602 1.999902,-1.267941c1.069273,-0.706474 1.548906,-1.061521 2.134681,-1.630188c0.716237,-0.695308 1.211445,-1.44581 1.541449,-1.992476c0.541111,-0.896365 0.952115,-1.578033 1.47778,-2.279863c0.46947,-0.626819 0.761769,-1.496941 0.845845,-2.195634c0.093788,-0.779329 0.224652,-1.594243 0.448967,-2.407554c0.225329,-0.816973 0.460708,-1.627507 0.546249,-2.453449c0.059207,-0.571679 0.059626,-1.504915 0.060335,-2.566353c0.000258,-0.385215 0,-1.184617 0,-1.998508c0,-0.799402 0,-1.908841 0,-2.568771c0,-0.899323 0,-1.459629 0,-2.548844c0,-0.543398 0.004526,-1.358506 -0.000177,-2.44515c-0.002335,-0.539487 0.046097,-1.337583 -0.175753,-2.294505c-0.198914,-0.85801 -0.574419,-1.401332 -0.790954,-2.324541c-0.168135,-0.716893 -0.289255,-1.641506 -0.638426,-2.35473c-0.270749,-0.553037 -0.817707,-1.440918 -1.184337,-2.070051c-0.465669,-0.799098 -0.87379,-1.600255 -1.432554,-2.307336c-0.483821,-0.612246 -1.076682,-1.241463 -1.794433,-1.638797c-0.793982,-0.439539 -1.872436,-0.60819 -2.650135,-0.843935c-1.030239,-0.312297 -1.914442,-0.363242 -2.61214,-0.461283c-1.061212,-0.149125 -1.922761,-0.378119 -2.776804,-0.649662c-1.063821,-0.338243 -1.727414,-0.694513 -2.833096,-0.934652c-0.829473,-0.180149 -1.688879,-0.150334 -2.749181,-0.150942c-0.66658,-0.00038 -1.917582,0 -2.755165,0c-0.818577,0 -1.918283,0 -2.734581,0c-1.016138,0 -1.788803,0 -3.020276,0c-0.857635,0 -1.746589,0 -2.647324,0c-0.99222,0 -2.033621,-0.043289 -2.982281,0c-0.848035,0.038694 -1.558981,0.554157 -2.450286,0.795781c-0.871478,0.236249 -1.842905,0.445253 -2.61495,0.758345c-0.848607,0.344144 -1.640834,0.790426 -2.533323,1.085587c-0.852746,0.282012 -1.553223,0.621408 -2.350354,0.982951c-0.632789,0.287001 -1.056324,0.975924 -1.688879,1.426124c-0.649113,0.461981 -1.728284,0.234991 -2.634133,0.404078c-0.869231,0.162253 -1.561332,0.905666 -1.737255,1.641519l-0.906365,0.150942" fill="none" id="svg_12" stroke="#000000" stroke-dasharray="null" stroke-linecap="null" stroke-linejoin="null" stroke-width="10"/>
 </g>
</svg>